<svg width="16" height="18" viewBox="0 0 16 18" fill="none" xmlns="http://www.w3.org/2000/svg">
<circle cx="8" cy="10" r="7.5" stroke="#479FA5"/>
<path d="M10.956 14.144C11.016 13.808 11.076 13.58 11.256 13.004L12.588 8.744C12.9 7.748 12.924 7.652 13.08 7.256H11.316C11.292 7.64 11.196 8.168 11.052 8.684L10.38 11.084C10.356 11.168 10.272 11.552 10.236 11.72C10.2 11.888 10.2 11.888 10.176 11.984C10.152 11.876 10.14 11.864 10.104 11.708C10.032 11.456 9.972 11.228 9.936 11.12L9.048 8.396C8.94 8.048 8.784 7.484 8.748 7.256H7.464C7.428 7.496 7.284 8.048 7.164 8.396L6.3 11.012C6.252 11.156 6.048 11.864 6.024 11.984C5.928 11.516 5.856 11.18 5.808 11.024L5.148 8.684C5.016 8.216 4.908 7.604 4.884 7.256H3.108C3.276 7.7 3.444 8.192 3.612 8.744L4.932 13.004C5.124 13.616 5.172 13.796 5.244 14.144H6.636C6.684 13.892 6.816 13.412 6.948 13.004L7.872 10.196C7.908 10.076 8.052 9.584 8.112 9.368C8.244 9.86 8.316 10.124 8.34 10.172L9.264 13.004C9.408 13.472 9.516 13.856 9.564 14.144H10.956Z" fill="#479FA5"/>
</svg>
